<?xml version="1.0" standalone="no"?><!DOCTYPE svg PUBLIC "-//W3C//DTD SVG 1.1//EN" "http://www.w3.org/Graphics/SVG/1.1/DTD/svg11.dtd"><svg t="1749117027090" class="icon" viewBox="0 0 1024 1024" version="1.1" xmlns="http://www.w3.org/2000/svg" p-id="9787" xmlns:xlink="http://www.w3.org/1999/xlink" width="200" height="200"><path d="M716.571429 332l167.428571-167.428571-61.142857-61.142858-167.428572 167.428572z m255.428571-167.428571q0 15.428571-10.285714 25.714285L226.857143 925.142857q-10.285714 10.285714-25.714286 10.285714t-25.714286-10.285714l-113.142857-113.142857q-10.285714-10.285714-10.285714-25.714286t10.285714-25.714285L797.142857 25.714286q10.285714-10.285714 25.714286-10.285715t25.714286 10.285715l113.142857 113.142857q10.285714 10.285714 10.285714 25.714286zM200 56l56 17.142857-56 17.142857-17.142857 56-17.142857-56-56-17.142857 56-17.142857 17.142857-56z m200 92.571429l112 34.285714-112 34.285714-34.285714 112-34.285715-112-112-34.285714 112-34.285714 34.285715-112z m531.428571 273.142857l56 17.142857-56 17.142857-17.142857 56-17.142857-56-56-17.142857 56-17.142857 17.142857-56zM565.714286 56l56 17.142857-56 17.142857-17.142857 56-17.142858-56-56-17.142857 56-17.142857 17.142858-56z" p-id="9788" fill="#ffffff"></path></svg>